<?xml version="1.0" encoding="utf-8"?>
<!-- Generator: Adobe Illustrator 24.1.2, SVG Export Plug-In . SVG Version: 6.00 Build 0)  -->
<svg version="1.1" id="Layer_1" xmlns="http://www.w3.org/2000/svg" xmlns:xlink="http://www.w3.org/1999/xlink" x="0px" y="0px"
	 viewBox="0 0 665.9 698.3" style="enable-background:new 0 0 665.9 698.3;" xml:space="preserve">
<style type="text/css">
	.st0{fill:#0C1121;}
	.st1{fill:#14254C;}
	.st2{fill:#0C1B38;}
	.st3{fill:#22B573;}
	.st4{fill:#4F5D6C;}
	.st5{fill:#FFFFFF;}
	.st6{fill:#E9AC6A;}
	.st7{fill:#E26841;}
</style>
<g>
	<g>
		<path class="st0" d="M542.8,665c-3.4,0-6.8-1.5-9-4.4l-50.4-65.4c-3.8-5-2.9-12.1,2.1-16c5-3.8,12.1-2.9,16,2.1l50.4,65.3
			c3.8,5,2.9,12.1-2.1,16C547.7,664.2,545.3,665,542.8,665z"/>
	</g>
	<g>
		<path class="st0" d="M283.5,654.6c0.4,6.7-5,12.3-11.7,12.3l-4.4-0.1l-39.6-0.5c-3.4,0-6.4-2.6-7-6.1c-0.6-3.9,2.1-7.6,6-8.2
			l21.1-3.7l21.8-4.5C276.5,642.5,283.1,647.6,283.5,654.6L283.5,654.6z"/>
	</g>
	<g>
		<path class="st0" d="M532.1,654.6c-0.4,6.7,5,12.3,11.7,12.3l4.4-0.1l39.6-0.5c3.4,0,6.4-2.6,7-6.1c0.6-3.9-2.1-7.6-6-8.2
			l-21.1-3.7L546,644C539,642.5,532.5,647.6,532.1,654.6L532.1,654.6z"/>
	</g>
	<g>
		<path class="st0" d="M272.2,666.5c-2.5,0-5-0.8-7.1-2.5c-15.1-11.9-28-25.3-38.5-39.8c-4.3-5.9-8.1-12-11.4-18.1
			c-3-5.5-1-12.4,4.6-15.4c5.5-3,12.4-1,15.4,4.6c2.8,5.2,6.2,10.5,9.9,15.6c9.2,12.8,20.7,24.6,34.2,35.3c4.9,3.9,5.7,11.1,1.8,16
			C278.8,665,275.5,666.5,272.2,666.5z"/>
	</g>
	<g>
		<path class="st1" d="M221.5,618.6c-9.5,0-18.6-5.4-22.9-14.6c-4.6-9.9-8-20-10.1-29.8c-4.2-19.8-3.2-38.4,3.1-55.3
			c5.5-14.9,18.4-37.2,49-59.1c21-15.1,45-25.4,71.2-30.7c13.7-2.8,27,6.1,29.8,19.8c2.8,13.7-6.1,27-19.8,29.8
			c-19.2,3.9-36.6,11.4-51.8,22.2c-15.5,11.1-26.8,24.1-31,35.5c-2.9,7.8-3.2,17.1-1,27.4c1.3,6.1,3.5,12.5,6.5,19
			c5.9,12.7,0.4,27.7-12.2,33.6C228.7,617.8,225,618.6,221.5,618.6z"/>
	</g>
	<g>
		<path d="M232.1,378.6c-6.9,0-13.4-1.5-19.4-4.6c-17.2-8.7-22.2-26-23.3-31.2l26.3-5.8c0.3,1.6,2.4,9.5,9.2,12.9
			c2.2,1.1,4.6,1.7,7.2,1.7c0,0,0,0,0,0L232.1,378.6C232.2,378.6,232.2,378.6,232.1,378.6z"/>
	</g>
	<g>
		<path class="st2" d="M203.3,359.7c-7.9,0-15.3-5-18-13c-3.2-9.6-12.1-43,7.5-70.7c11.4-16.1,30.6-27,52.6-29.8
			c22.1-2.8,45.4,2.5,65.6,14.9c8.9,5.5,11.7,17.2,6.2,26.1c-5.5,8.9-17.2,11.7-26.1,6.2c-26.7-16.5-56.4-11-67.4,4.5
			c-9.8,13.8-3.3,34.5-2.5,36.8c3.3,9.9-2.1,20.7-12,24C207.3,359.4,205.3,359.7,203.3,359.7z"/>
	</g>
	<g>
		<path class="st3" d="M357.4,189.3c10.2-11,12.7-20.4,16.2-25.8c6.5-9.8,25-17.6,77.7-7.7c-0.8,8.5-1.6,17-2.4,25.5
			c-39.2-13.3-56.6-8.6-65.1-1c-3.8,3.5-7.7,8.7-16.2,14.3c-10,6.5-20.6,8.1-27.9,8.3C344.3,200.4,351,196.2,357.4,189.3z"/>
	</g>
	<g>
		<path class="st3" d="M451.3,195.6c0,7.7,0,15.4,0,23.1c-25.9-13.9-43.5-13.7-55.1-10.8c-8,2-15.9,5.3-28.3,5.3
			c-11.3,0-20.5-4.9-26.3-8.9c7.5,0.1,18.3-0.7,29.6-5.7c10.4-4.5,15.4-8.7,20.7-11.5C401.9,181.9,419.2,179.6,451.3,195.6z"/>
	</g>
	<g>
		<path class="st1" d="M497.5,619.6c-7.9,0-15.6-3.7-20.6-10.6c-9.6-13.4-19.9-26.6-30.6-39.2c-30.3-35.8-65-68.4-103-96.8
			c-11.2-8.4-13.5-24.2-5.1-35.4c8.4-11.2,24.2-13.5,35.4-5.1c41.1,30.7,78.6,65.9,111.4,104.6c11.5,13.6,22.7,27.9,33.1,42.4
			c8.1,11.3,5.5,27.1-5.8,35.3C507.7,618.1,502.6,619.6,497.5,619.6z"/>
	</g>
	<g>
		<path d="M334.7,445.4L334.7,445.4c-21.3,1.4-40.1-13.6-43.3-34.7l-15.3-99c-6.7-32.6,17.3-63.5,50.6-65l0,0
			c33.3-1.5,60,27.1,56.3,60.2l-10.1,101.6C370.8,428.4,354.7,444,334.7,445.4z"/>
	</g>
	<g>
		<g>
			<g>
				<path class="st4" d="M243.2,313.1c-0.7-42.8-0.4-112.9,0.6-152.7c1-40.3,2.9-79.1,5.6-116.3c0.2-2.4-2.4-4.1-4.5-2.9
					c-2.4,1.3-4.8,2.6-7.2,3.9c-0.9,0.5-1.5,1.4-1.6,2.5c-2.8,35.7-5.1,72.6-6.8,110.5c-1.8,40.5-2.9,111.8-3.2,155.4"/>
			</g>
		</g>
		<g>
			<g>
				<polygon class="st4" points="243.3,336.2 260.7,326.3 260.8,323.4 235,308.3 209.1,323.1 209,326 225.9,335.8 				"/>
			</g>
		</g>
		<g>
			<g>
				<path class="st4" d="M243,387.3l-0.3,50.7c0,2.1-1.7,3.8-3.9,3.8l-9.8-0.1c-2.1,0-3.8-1.7-3.8-3.9l0.6-111.3l17.5,0.1l0,21.7
					L243,387.3z"/>
			</g>
		</g>
	</g>
	<g>
		<g>
			<path class="st0" d="M346.5,453.4"/>
		</g>
	</g>
	<g>
		<g>
			<g>
				<path d="M251.7,392.1l-1.5,19c-0.4,4.5-4.3,7.9-8.8,7.5l-21.6-1.7c-3.3-0.3-5.7-3.1-5.5-6.4l1.8-23.4c0.3-3.3,3.1-5.7,6.4-5.5
					l21.6,1.7C248.7,383.6,252.1,387.6,251.7,392.1z"/>
			</g>
		</g>
	</g>
	<g>
		
			<rect x="241.8" y="385.7" transform="matrix(4.582813e-02 -0.9989 0.9989 4.582813e-02 -161.466 641.8785)" width="27" height="39.5"/>
	</g>
	<g>
		<g>
			<path d="M214.8,352.3l-0.2,19c-0.1,4.5,3.6,8.2,8.1,8.3l21.7,0.3c3.3,0,6-2.6,6-5.9l0.3-23.5c0-3.3-2.6-6-5.9-6l-21.6-0.3
				C218.6,344.1,214.9,347.8,214.8,352.3z"/>
		</g>
	</g>
	<g>
		<path class="st5" d="M309.2,241.7c0.8,0.2,2.1,0.5,3.7,0.5c1.1,0,2.3-0.1,3.6-0.5c3.4-1.1,5.5-3.3,6.4-4.6"/>
	</g>
	<g>
		<path class="st2" d="M323,265L323,265c-16.1,0-29.2-13.1-29.2-29.2v-31.6c0-19.7,16-35.7,35.7-35.7h0c19.7,0,35.7,16,35.7,35.7
			l-14.7,41.4C346.3,257.2,335.3,265,323,265z"/>
	</g>
	<g>
		
			<rect x="293.8" y="194.8" transform="matrix(-1 -4.481982e-11 4.481982e-11 -1 660.7385 406.2962)" class="st3" width="73.2" height="16.7"/>
	</g>
	<g>
		<path class="st6" d="M293.8,220.4h43.6c4.7,0,8.6-3.9,8.6-8.6v0c0-4.7-3.9-8.6-8.6-8.6h-43.6V220.4z"/>
	</g>
	<g>
		<polygon class="st7" points="301.1,220.4 308.6,220.4 308.6,206.1 		"/>
	</g>
	<g>
		<path d="M251.8,450c14-7.5,82.4-47.3,82.4-47.3s66.9,44.6,80.1,54.5c-5.2,5.1-34.3,33.1-79.8,32.3
			C285.4,488.6,256.1,455.1,251.8,450z"/>
	</g>
	<g>
		<rect x="289.7" y="398.8" class="st3" width="84" height="28.1"/>
	</g>
	<g>
		<path class="st2" d="M277.5,421.3c-2.2,0-4.5-0.1-6.7-0.2c-10.5-0.6-18.5-9.5-17.9-20s9.5-18.5,20-17.9
			c29.3,1.6,56-12.4,67.9-35.7c11-21.5,5.6-43.4,2.8-51.8c-3.4-9.9,2-20.7,11.9-24c9.9-3.4,20.7,2,24,11.9c4.4,13,12.7,46.8-5,81.2
			C356.7,399.7,319.1,421.3,277.5,421.3z"/>
	</g>
	<g>
		<path class="st5" d="M296.1,213.6h3.3c1.3,0,2.3-1,2.3-2.3v-0.2c0-1.3-1-2.3-2.3-2.3h-3.3c-1.3,0-2.3,1-2.3,2.3v0.2
			C293.7,212.6,294.8,213.6,296.1,213.6z"/>
	</g>
	<g>
		<path class="st5" d="M328.1,213.6h3.3c1.3,0,2.3-1,2.3-2.3v-0.2c0-1.3-1-2.3-2.3-2.3h-3.3c-1.3,0-2.3,1-2.3,2.3v0.2
			C325.8,212.6,326.9,213.6,328.1,213.6z"/>
	</g>
	<g>
		<circle cx="293.9" cy="211.3" r="2.4"/>
	</g>
	<g>
		<circle cx="325.9" cy="211.3" r="2.4"/>
	</g>
</g>
</svg>
